<svg xmlns="http://www.w3.org/2000/svg" width="48" height="48" viewBox="0 0 48 48" fill="none" stroke="currentColor" stroke-width="1.5" stroke-linecap="round" stroke-linejoin="round">
  <!-- Outer ear shape -->
  <path d="M36 20c0-8.84-5.37-16-12-16S12 11.16 12 20"/>
  <!-- Ear canal curve -->
  <path d="M20 20a4 4 0 018 0"/>
  <!-- Inner ear detail -->
  <path d="M30 20c0 4-1.5 7-4 9.5-2 2-3 4.5-3 7.5v3"/>
  <!-- Ear lobe -->
  <path d="M23 40c-3 0-5.5-1-7-3"/>
  <!-- Sound waves (listening) -->
  <path d="M38 14c2 3.5 3 7 3 10.5"/>
  <path d="M40 10c3 5 4.5 10 4.5 15"/>
</svg>
