<svg xmlns="http://www.w3.org/2000/svg" width="48" height="48" viewBox="0 0 48 48" fill="none" stroke="currentColor" stroke-width="1.5" stroke-linecap="round" stroke-linejoin="round">
  <!-- Left hand (palm up, treating) -->
  <path d="M6 28c2-6 5-10 10-12"/>
  <path d="M6 28c0 4 2.5 8 6 10.5"/>
  <path d="M12 38.5c2.5 1.5 5 2.5 8 2.5"/>
  <!-- Right hand (palm down, guiding) -->
  <path d="M42 20c-2 6-5 10-10 12"/>
  <path d="M42 20c0-4-2.5-8-6-10.5"/>
  <path d="M36 9.5c-2.5-1.5-5-2.5-8-2.5"/>
  <!-- Healing energy / connection -->
  <circle cx="24" cy="24" r="4"/>
  <path d="M20.5 24h-3"/>
  <path d="M30.5 24h-3"/>
  <path d="M24 20.5v-3"/>
  <path d="M24 30.5v-3"/>
</svg>
