<svg xmlns="http://www.w3.org/2000/svg" xmlns:xlink="http://www.w3.org/1999/xlink" xmlns:inkscape="http://www.inkscape.org/namespaces/inkscape" version="1.1" width="1491.21" height="567.279" viewBox="0 0 1491.21 567.279">
<defs>
<clipPath id="clip_1">
<path transform="matrix(1,0,0,-1,0,567.279)" d="M0 567.279H1491.213V0H0Z"/>
</clipPath>
</defs>
<path transform="matrix(1,0,0,-1,288.3408,501.287)" d="M0 0H3.306V17.335H21.206V20.282H3.306V34.055H24.385V37.104H0Z" fill="currentColor"/>
<path transform="matrix(1,0,0,-1,0,567.279)" d="M318.805 65.992H322.112V103.09599H318.805Z" fill="currentColor"/>
<g clip-path="url(#clip_1)">
<path transform="matrix(1,0,0,-1,349.8926,483.1313)" d="M0 0C-1.924 .737-4.237 1.389-6.875 1.937-9.346 2.443-11.385 2.972-12.934 3.511-14.439 4.034-15.552 4.73-16.242 5.579-16.922 6.416-17.267 7.575-17.267 9.024-17.267 11.223-16.511 12.92-14.956 14.212-13.403 15.501-10.863 16.155-7.406 16.155-6.338 16.155-5.323 16.071-4.39 15.905-3.458 15.737-2.583 15.493-1.79 15.18-.995 14.865-.242 14.463 .449 13.986 1.142 13.507 1.777 12.947 2.338 12.321L2.639 11.985 4.373 14.654 4.168 14.852C3.158 15.826 2.055 16.646 .89 17.29-.28 17.935-1.57 18.421-2.944 18.735-4.313 19.047-5.815 19.205-7.406 19.205-9.969 19.205-12.273 18.8-14.254 18.002-16.256 17.195-17.834 15.991-18.945 14.425-20.06 12.852-20.625 10.915-20.625 8.668-20.625 6.617-20.143 4.96-19.192 3.743-18.252 2.538-16.838 1.57-14.991 .868-13.187 .181-10.969-.444-8.401-.991-5.862-1.532-3.721-2.123-2.038-2.744-.394-3.351 .833-4.135 1.611-5.073 2.375-5.996 2.763-7.231 2.763-8.745 2.763-10.963 1.933-12.585 .226-13.704-1.502-14.839-3.95-15.414-7.047-15.414-8.385-15.414-9.691-15.287-10.928-15.036-12.17-14.784-13.35-14.436-14.433-14.002-15.515-13.57-16.528-13.038-17.445-12.421-18.358-11.808-19.192-11.092-19.922-10.294L-20.221-9.967-22.009-12.682-21.799-12.881C-20.483-14.128-19.042-15.165-17.516-15.962-15.995-16.758-14.346-17.372-12.616-17.788-10.888-18.202-9.049-18.412-7.15-18.412-5.181-18.412-3.367-18.201-1.755-17.787-.134-17.368 1.292-16.749 2.481-15.946 3.687-15.131 4.623-14.079 5.262-12.82 5.899-11.566 6.222-10.092 6.222-8.439 6.222-6.216 5.669-4.419 4.579-3.099 3.501-1.794 1.961-.752 0 0" fill="currentColor"/>
<path transform="matrix(1,0,0,-1,0,567.279)" d="M361.989 65.992H365.29603V103.09599H361.989Z" fill="currentColor"/>
<path transform="matrix(1,0,0,-1,403.0698,482.7348)" d="M0 0C0-1.935-.33-3.855-.98-5.707-1.63-7.556-2.585-9.255-3.819-10.757-5.049-12.251-6.548-13.464-8.276-14.362-9.996-15.255-11.926-15.708-14.016-15.708-16.073-15.708-17.979-15.271-19.681-14.411-21.393-13.547-22.893-12.368-24.138-10.906-25.388-9.439-26.377-7.748-27.078-5.879-27.778-4.012-28.133-2.034-28.133 0-28.133 1.933-27.787 3.851-27.103 5.702-26.418 7.555-25.454 9.256-24.235 10.758-23.023 12.252-21.533 13.465-19.805 14.362-18.085 15.255-16.138 15.708-14.016 15.708-12.029 15.708-10.157 15.271-8.452 14.411-6.741 13.546-5.232 12.366-3.968 10.903-2.702 9.438-1.714 7.748-1.03 5.882-.347 4.013 0 2.034 0 0M-1.442 12.839C-2.971 14.645-4.811 16.105-6.909 17.181-9.018 18.261-11.409 18.808-14.016 18.808-16.483 18.808-18.804 18.288-20.91 17.26-23.009 16.238-24.874 14.831-26.453 13.079-28.03 11.328-29.268 9.308-30.133 7.074-31 4.841-31.439 2.46-31.439 0-31.439-2.356-31.018-4.683-30.186-6.916-29.354-9.151-28.16-11.18-26.637-12.945-25.108-14.716-23.261-16.151-21.145-17.208-19.022-18.27-16.641-18.808-14.066-18.808-11.597-18.808-9.277-18.297-7.173-17.287-5.074-16.281-3.209-14.883-1.629-13.13-.053-11.38 1.186-9.36 2.052-7.125 2.918-4.888 3.357-2.491 3.357 0 3.357 2.287 2.936 4.571 2.104 6.789 1.274 9.003 .081 11.039-1.442 12.839" fill="currentColor"/>
<path transform="matrix(1,0,0,-1,408.916,467.2321)" d="M0 0H13.335V-34.055H16.641V0H29.976V3.05H0Z" fill="currentColor"/>
<path transform="matrix(1,0,0,-1,447.1484,483.79798)" d="M0 0H18.515V2.947H0V16.566H21.181V19.615H-3.306V-17.489H21.643V-14.439H0Z" fill="currentColor"/>
<path transform="matrix(1,0,0,-1,497.4429,480.02558)" d="M0 0C-.605-1.308-1.474-2.385-2.583-3.2-3.68-4.007-4.992-4.416-6.482-4.416H-18.907V12.793H-6.841C-5.415 12.793-4.109 12.391-2.96 11.598-1.797 10.795-.85 9.731-.144 8.435 .561 7.14 .918 5.72 .918 4.215 .918 2.734 .609 1.316 0 0M.021-5.078C1.338-3.99 2.379-2.62 3.115-1.007 3.851 .603 4.224 2.36 4.224 4.215 4.224 5.654 3.948 7.077 3.404 8.445 2.861 9.81 2.099 11.06 1.138 12.16 .173 13.265-.983 14.164-2.3 14.832-3.626 15.503-5.12 15.843-6.738 15.843H-22.213V-21.261H-18.907V-7.517H-7.645L1.177-21.261H5.023L-4.113-7.015C-2.562-6.715-1.173-6.065 .021-5.078" fill="currentColor"/>
<path transform="matrix(1,0,0,-1,523.7456,458.35389)" d="M0 0-3.529 4.839H-7.37L-2.362-1.112Z" fill="currentColor"/>
<path transform="matrix(1,0,0,-1,528.7993,486.4411)" d="M0 0H-14.776L-7.375 17.832ZM-8.73 22.259-24.513-14.846H-20.939L-15.958-2.844H1.177L6.14-14.846H9.661L-6.017 22.259Z" fill="currentColor"/>
<path transform="matrix(1,0,0,-1,546.439,467.2321)" d="M0 0H11.912C13.305 0 14.594-.394 15.745-1.172 16.906-1.957 17.853-3.012 18.559-4.308 19.262-5.601 19.619-7.038 19.619-8.579 19.619-10.062 19.318-11.481 18.726-12.797 18.139-14.103 17.278-15.179 16.17-15.994 15.073-16.8 13.744-17.209 12.22-17.209H0ZM19.863-.631C18.882 .473 17.718 1.371 16.401 2.038 15.075 2.709 13.599 3.05 12.015 3.05H-3.307V-34.055H0V-20.31H12.322C14.472-20.31 16.36-19.736 17.935-18.604 19.496-17.481 20.739-16.015 21.631-14.248 22.524-12.481 22.977-10.573 22.977-8.579 22.977-7.142 22.701-5.718 22.157-4.349 21.614-2.984 20.842-1.733 19.863-.631" fill="currentColor"/>
<path transform="matrix(1,0,0,-1,0,567.279)" d="M574.981 65.992H578.288V103.09599H574.981Z" fill="currentColor"/>
<path transform="matrix(1,0,0,-1,607.4209,486.4411)" d="M0 0H-14.776L-7.375 17.832ZM-8.73 22.259-24.513-14.846H-20.939L-15.958-2.844H1.177L6.141-14.846H9.661L-6.017 22.259Z" fill="currentColor"/>
<path transform="matrix(1,0,0,-1,0,567.279)" d="M633.346 65.992H636.65206V103.09599H633.346Z" fill="currentColor"/>
<path transform="matrix(1,0,0,-1,661.9873,483.79798)" d="M0 0H18.514V2.947H0V16.566H21.181V19.615H-3.307V-17.489H21.643V-14.439H0Z" fill="currentColor"/>
<path transform="matrix(1,0,0,-1,714.2974,464.1825)" d="M0 0-12.499-16.293-25.047 0H-28.998L-14.473-18.808-28.586-37.104H-24.637L-12.499-21.324-.411-37.104H3.488L-10.626-18.808 3.899 0Z" fill="currentColor"/>
<path transform="matrix(1,0,0,-1,725.583,483.79798)" d="M0 0H18.514V2.947H0V16.566H21.181V19.615H-3.307V-17.489H21.643V-14.439H0Z" fill="currentColor"/>
<path transform="matrix(1,0,0,-1,775.8774,480.02558)" d="M0 0C-.605-1.308-1.475-2.385-2.583-3.2-3.68-4.007-4.992-4.416-6.482-4.416H-18.907V12.793H-6.841C-5.416 12.793-4.109 12.391-2.96 11.598-1.797 10.795-.85 9.731-.144 8.435 .561 7.14 .917 5.72 .917 4.215 .917 2.734 .609 1.316 0 0M.021-5.078C1.338-3.99 2.379-2.62 3.115-1.007 3.851 .604 4.224 2.36 4.224 4.215 4.224 5.654 3.948 7.077 3.404 8.445 2.861 9.81 2.099 11.06 1.138 12.16 .173 13.265-.983 14.164-2.3 14.832-3.627 15.503-5.12 15.843-6.738 15.843H-22.213V-21.261H-18.907V-7.517H-7.645L1.177-21.261H5.022L-4.113-7.015C-2.562-6.715-1.173-6.065 .021-5.078" fill="currentColor"/>
<path transform="matrix(1,0,0,-1,813.6533,491.507)" d="M0 0C-.794-1.621-1.848-2.953-3.133-3.957-4.429-4.971-5.834-5.728-7.311-6.209-10.849-7.363-14.331-7.116-17.254-5.639-18.967-4.774-20.485-3.594-21.765-2.13-23.05-.663-24.073 1.037-24.806 2.922-25.54 4.804-25.912 6.824-25.912 8.926-25.912 10.795-25.598 12.673-24.98 14.509-24.365 16.34-23.444 18.03-22.243 19.532-21.048 21.025-19.559 22.237-17.816 23.133-16.078 24.027-14.069 24.48-11.845 24.48-10.449 24.48-9.032 24.269-7.635 23.853-6.248 23.439-4.932 22.744-3.726 21.785-2.522 20.829-1.493 19.521-.664 17.898L-.5 17.576 2.249 19.146 2.108 19.437C.958 21.807-.809 23.778-3.143 25.294-5.48 26.811-8.339 27.581-11.639 27.581-14.415 27.581-16.925 27.033-19.101 25.955-21.272 24.878-23.13 23.425-24.624 21.635-26.113 19.852-27.263 17.85-28.043 15.685-28.822 13.52-29.217 11.298-29.217 9.08-29.217 6.757-28.796 4.431-27.965 2.166-27.134-.102-25.932-2.173-24.391-3.991-22.848-5.812-20.992-7.29-18.875-8.382-16.752-9.48-14.404-10.036-11.896-10.036-9.986-10.036-8.033-9.702-6.092-9.044-4.148-8.384-2.353-7.398-.755-6.114 .854-4.82 2.078-3.223 2.883-1.366L3.016-1.061 .15 .307Z" fill="currentColor"/>
<path transform="matrix(1,0,0,-1,0,567.279)" d="M822.336 65.992H825.642V103.09599H822.336Z" fill="currentColor"/>
<path transform="matrix(1,0,0,-1,861.1958,491.507)" d="M0 0C-.794-1.621-1.848-2.953-3.134-3.957-4.429-4.971-5.834-5.728-7.311-6.209-10.849-7.363-14.331-7.116-17.254-5.639-18.968-4.774-20.485-3.594-21.766-2.13-23.05-.663-24.073 1.037-24.807 2.922-25.54 4.804-25.912 6.824-25.912 8.926-25.912 10.795-25.598 12.673-24.98 14.509-24.365 16.34-23.444 18.03-22.243 19.532-21.048 21.025-19.559 22.237-17.816 23.133-16.078 24.027-14.069 24.48-11.845 24.48-10.449 24.48-9.032 24.269-7.635 23.853-6.248 23.439-4.933 22.743-3.726 21.785-2.523 20.829-1.493 19.521-.664 17.898L-.5 17.576 2.249 19.146 2.108 19.437C.958 21.807-.809 23.778-3.144 25.294-5.481 26.811-8.339 27.581-11.64 27.581-14.415 27.581-16.926 27.033-19.102 25.955-21.272 24.878-23.13 23.425-24.624 21.635-26.113 19.852-27.264 17.85-28.043 15.685-28.822 13.52-29.217 11.298-29.217 9.08-29.217 6.757-28.796 4.431-27.965 2.166-27.135-.102-25.933-2.173-24.392-3.991-22.848-5.812-20.992-7.29-18.876-8.382-16.752-9.48-14.404-10.036-11.896-10.036-9.986-10.036-8.033-9.702-6.092-9.044-4.148-8.384-2.353-7.398-.755-6.114 .854-4.82 2.078-3.223 2.883-1.366L3.016-1.061 .15 .307Z" fill="currentColor"/>
<path transform="matrix(1,0,0,-1,0,567.279)" d="M869.878 65.992H873.185V103.09599H869.878Z" fill="currentColor"/>
<path transform="matrix(1,0,0,-1,889.8794,467.2321)" d="M0 0H13.335V-34.055H16.641V0H29.976V3.05H0Z" fill="currentColor"/>
<path transform="matrix(1,0,0,-1,928.1118,483.79798)" d="M0 0H18.515V2.947H0V16.566H21.181V19.615H-3.306V-17.489H21.643V-14.439H0Z" fill="currentColor"/>
<path transform="matrix(1,0,0,-1,959.4995,467.2321)" d="M0 0H12.066C13.492 0 14.797-.402 15.947-1.196 17.11-1.999 18.057-3.063 18.764-4.359 19.468-5.653 19.825-7.073 19.825-8.579 19.825-10.06 19.516-11.478 18.907-12.793 18.302-14.102 17.433-15.178 16.324-15.994 15.227-16.8 13.915-17.209 12.425-17.209H0ZM18.928-17.872C20.245-16.784 21.286-15.414 22.022-13.8 22.758-12.19 23.13-10.433 23.13-8.579 23.13-7.14 22.855-5.717 22.311-4.349 21.768-2.984 21.006-1.734 20.045-.633 19.08 .472 17.924 1.371 16.607 2.038 15.28 2.709 13.787 3.05 12.169 3.05H-3.306V-34.055H0V-20.31H11.262L20.084-34.055H23.93L14.794-19.809C16.346-19.509 17.734-18.858 18.928-17.872" fill="currentColor"/>
<path transform="matrix(1,0,0,-1,1009.7622,486.4411)" d="M0 0H-14.775L-7.374 17.832ZM-8.73 22.259-24.512-14.846H-20.939L-15.957-2.844H1.177L6.141-14.846H9.661L-6.016 22.259Z" fill="currentColor"/>
<path transform="matrix(1,0,0,-1,1047.022,475.81098)" d="M0 0C0-1.484-.3-2.903-.893-4.218-1.48-5.524-2.34-6.6-3.449-7.415-4.546-8.221-5.875-8.63-7.399-8.63H-19.619V8.579H-7.707C-6.314 8.579-5.025 8.185-3.874 7.407-2.712 6.622-1.766 5.566-1.061 4.271-.356 2.978 0 1.541 0 0M.245 7.948C-.737 9.052-1.901 9.95-3.217 10.617-4.543 11.288-6.02 11.628-7.604 11.628H-22.925V-25.476H-19.619V-11.731H-7.297C-5.146-11.731-3.259-11.157-1.684-10.025-.123-8.902 1.121-7.437 2.013-5.669 2.905-3.902 3.357-1.994 3.357 0 3.357 1.438 3.082 2.861 2.538 4.23 1.995 5.595 1.224 6.846 .245 7.948" fill="currentColor"/>
<path transform="matrix(1,0,0,-1,1071.2788,458.35389)" d="M0 0-3.529 4.839H-7.37L-2.362-1.112Z" fill="currentColor"/>
<path transform="matrix(1,0,0,-1,1059.252,483.79798)" d="M0 0H18.514V2.947H0V16.566H21.181V19.615H-3.306V-17.489H21.643V-14.439H0Z" fill="currentColor"/>
<path transform="matrix(1,0,0,-1,1114.5156,482.83729)" d="M0 0C0-1.915-.196-3.832-.583-5.7-.966-7.55-1.624-9.238-2.539-10.717-3.444-12.181-4.697-13.375-6.262-14.265-7.826-15.154-9.831-15.605-12.221-15.605-14.581-15.605-16.569-15.171-18.132-14.314-19.696-13.458-20.947-12.283-21.851-10.82-22.766-9.34-23.433-7.643-23.833-5.775-24.236-3.893-24.44-1.95-24.44 0V18.655H-27.746V0C-27.746-2.308-27.484-4.595-26.968-6.797-26.448-9.016-25.586-11.047-24.407-12.833-23.218-14.634-21.605-16.079-19.613-17.127-17.623-18.175-15.119-18.706-12.168-18.706-9.322-18.706-6.887-18.192-4.933-17.18-2.977-16.167-1.366-14.768-.142-13.02 1.074-11.283 1.962-9.268 2.501-7.03 3.035-4.809 3.306-2.444 3.306 0V18.655H0Z" fill="currentColor"/>
<path transform="matrix(1,0,0,-1,1122.2598,467.2321)" d="M0 0H13.335V-34.055H16.641V0H29.976V3.05H0Z" fill="currentColor"/>
<path transform="matrix(1,0,0,-1,0,567.279)" d="M1157.186 65.992H1160.4921V103.09599H1157.186Z" fill="currentColor"/>
<path transform="matrix(1,0,0,-1,1196.1958,491.20008)" d="M0 0-.15-.307C-.944-1.928-1.999-3.259-3.284-4.264-4.579-5.278-5.984-6.035-7.461-6.516-10.999-7.669-14.481-7.423-17.404-5.946-19.118-5.081-20.636-3.9-21.916-2.437-23.201-.969-24.224 .731-24.957 2.615-25.69 4.498-26.062 6.518-26.062 8.619-26.062 10.488-25.749 12.366-25.131 14.202-24.515 16.034-23.594 17.724-22.394 19.225-21.199 20.718-19.709 21.93-17.966 22.826-16.229 23.72-14.22 24.173-11.996 24.173-10.6 24.173-9.183 23.962-7.786 23.546-6.398 23.132-5.083 22.437-3.876 21.478-2.673 20.522-1.643 19.214-.814 17.591L-.65 17.269 2.099 18.84 1.958 19.13C.808 21.5-.959 23.471-3.294 24.987-5.631 26.504-8.489 27.274-11.79 27.274-14.565 27.274-17.076 26.727-19.252 25.648-21.423 24.572-23.281 23.118-24.774 21.328-26.264 19.545-27.414 17.543-28.193 15.378-28.973 13.213-29.368 10.991-29.368 8.773-29.368 6.451-28.946 4.125-28.116 1.859-27.285-.409-26.083-2.48-24.542-4.298-22.998-6.119-21.143-7.597-19.026-8.689-16.902-9.787-14.554-10.343-12.047-10.343-10.136-10.343-8.184-10.009-6.243-9.351-4.299-8.691-2.503-7.705-.906-6.42 .703-5.127 1.927-3.53 2.733-1.673L2.865-1.367Z" fill="currentColor"/>
<path transform="matrix(1,0,0,-1,301.3029,360.2055)" d="M0 0H2.193C4.238 0 6.142 .878 7.898 2.634 9.655 4.39 11.188 6.431 12.507 8.78 13.822 11.114 14.771 13.674 15.36 16.46 15.941 19.239 16.238 21.791 16.238 24.14V254.991L-96.994-9.217-204.521 241.387V24.14C-204.521 21.791-204.233 19.239-203.643 16.46-203.062 13.674-202.106 11.114-200.791 8.78-199.475 6.431-197.938 4.39-196.182 2.634-194.426 .878-192.385 0-190.039 0H-187.842V-4.386H-235.682V0H-233.489C-231.444 0-229.536 .878-227.784 2.634-226.027 4.39-224.564 6.431-223.393 8.78-222.227 11.114-221.348 13.674-220.759 16.46-220.178 19.239-219.881 21.791-219.881 24.14V258.066C-219.881 260.107-220.178 262.453-220.759 265.087-221.348 267.721-222.227 270.203-223.393 272.544-224.564 274.886-226.027 276.86-227.784 278.472-229.536 280.076-231.444 280.888-233.489 280.888H-235.682V285.274H-190.914L-89.096 45.205 12.726 285.274H62.321V280.888H60.124C57.779 280.888 55.738 280.076 53.982 278.472 52.226 276.86 50.688 274.886 49.373 272.544 48.058 270.203 47.102 267.721 46.521 265.087 45.931 262.453 45.643 260.107 45.643 258.066V24.14C45.643 21.791 45.931 19.239 46.521 16.46 47.102 13.674 48.058 11.114 49.373 8.78 50.688 6.431 52.226 4.39 53.982 2.634 55.738 .878 57.779 0 60.124 0H62.321V-4.386H0Z" fill="currentColor"/>
<path transform="matrix(1,0,0,-1,970.1517,360.2055)" d="M0 0H2.197V-4.386H-46.521V0H-44.324C-42.283 0-40.308 .878-38.4 2.634-36.499 4.39-34.966 6.431-33.791 8.78-32.628 11.114-31.672 13.674-30.938 16.46-30.212 19.239-29.842 21.791-29.842 24.14V258.066C-29.842 260.107-30.06 262.453-30.501 265.087-30.938 267.721-31.75 270.203-32.913 272.544-34.088 274.886-35.699 276.86-37.744 278.472-39.793 280.076-42.283 280.888-45.202 280.888H-47.399V285.274H-3.071L156.245 34.232V258.066C156.245 260.107 155.874 262.453 155.148 265.087 154.414 267.721 153.392 270.203 152.073 272.544 150.758 274.886 149.22 276.86 147.468 278.472 145.712 280.076 143.659 280.888 141.322 280.888H139.129V285.274H188.283V280.888H186.086C183.741 280.888 181.7 280.076 179.944 278.472 178.188 276.86 176.65 274.886 175.335 272.544 174.02 270.203 173.064 267.721 172.483 265.087 171.893 262.453 171.604 260.107 171.604 258.066V-4.386H144.393L-14.482 247.53V24.14C-14.482 21.791-14.193 19.239-13.604 16.46-13.022 13.674-12.066 11.114-10.751 8.78-9.436 6.431-7.898 4.39-6.142 2.634-4.386 .878-2.345 0 0 0" fill="currentColor"/>
<path transform="matrix(1,0,0,-1,1260.0068,221.51789)" d="M0 0H67.59L33.795 91.726ZM100.506-138.688H102.7C109.72-138.688 113.232-135.472 113.232-129.033 113.232-126.692 112.795-124.202 111.917-121.572L72.417-14.923H-4.386L-42.571-119.816C-43.449-122.161-43.886-124.354-43.886-126.399-43.886-130.204-42.864-133.201-40.815-135.394-38.771-137.587-36.577-138.688-34.232-138.688H-32.039V-143.074H-80.753V-138.688H-78.559C-74.758-138.688-71.028-136.424-67.367-131.882-63.711-127.351-60.718-122.009-58.372-115.866L42.134 151.854 140.444-113.232C142.489-119.09 145.341-124.795 149.002-130.348 152.658-135.909 157.407-138.688 163.265-138.688H165.458V-143.074H100.506Z" fill="currentColor"/>
<path transform="matrix(1,0,0,-1,559.074,234.37039)" d="M0 0C-30.678 5.927-64.128-1.828-76.623-4.224L-37.822 103.274 0 0C1.045 1.539-1.054-1.567 0 0M-41.683-57.731C-59.885-79.094-77.341-104.141-104.253-112.132-107.861-113.205-111.666-113.969-115.499-114.324-115.433-112.431-114.995-110.417-114.184-108.263L-80.288-14.351H-80.279C-70.422-10.77-50.339 1.601-2.807-4.159-15.992-23.62-31.341-45.599-41.683-57.731M-129.99-104.318C-131.071-107.144-132.293-109.811-133.654-112.3-137.44-110.892-140.891-108.757-143.763-105.754-151.297-97.875-152.91-85.612-149.973-75.112-147.036-64.613-140.182-55.633-132.554-47.837-122.847-37.925-111.629-29.541-99.441-22.939ZM141.031 111.225C163.015 137.569 198.588 153.117 232.822 152.87 250.392 152.743 266.467 146.79 279.315 134.8 289.35 125.435 291.36 109.868 307.246 108.705 317.621 107.945 326.95 117.75 326.679 128.157 326.136 149.049 300.297 155.79 284.218 160.522 183.702 190.105 107.317 136.345 45.133 62.923 42.244 59.512 20.061 31.124 20.061 31.124 15.582 37.643-20.671 139.637-28.8 161.554L-29.486 163.401-94.061-8.616C-128.199-19.34-159.503-42.084-171.337-74.628-177.464-91.479-175.575-110.509-161.144-122.592-150.792-131.261-136.509-134.449-123.109-132.789-98.932-129.794-79.003-113-63.149-95.674-37.44-67.578-15.684-38.727 3.543-11.059 3.73-11.106 3.916-11.162 4.112-11.218L40.293-110.025C41.179-112.655 41.617-115.144 41.617-117.485 41.617-123.919 38.102-127.136 31.08-127.136H28.889V-131.528H93.846V-127.136H91.645C85.789-127.136 81.034-124.358 77.387-118.8 73.723-113.242 70.87-107.535 68.827-101.679L24.012 19.163C27.152 28.46 86.339 100.383 130.542 125.107 99.076 98.135 86.746 66.116 82.779 51.764 74.108 20.386 76.119-13.946 88.876-43.938 122.488-122.956 204.234-139.673 274.948-130.496 279.031-129.966 317.699-124.756 317.699-121.26L319.65-5.596C319.65-3.545 320.014-1.204 320.751 1.435 321.478 4.064 322.429 6.545 323.604 8.895 324.769 11.235 326.234 13.203 327.996 14.816 329.749 16.42 331.791 17.231 334.141 17.231H336.333V21.623H273.566V17.231H275.767C278.108 17.231 280.15 16.42 281.912 14.816 283.665 13.203 285.204 11.235 286.519 8.895 287.833 6.545 288.784 4.064 289.372 1.435 289.96-1.204 290.249-3.545 290.249-5.596 290.249-39.925 289.502-74.43 290.291-108.695 280.588-117.102 262.236-118.293 249.938-118.94 233.768-119.792 217.426-117.612 202.093-112.385 131.68-88.382 93.608-5.309 116.213 64.406 121.183 79.774 130.783 98.944 141.031 111.225" fill="currentColor"/>
</g>
</svg>
